<?xml version="1.0" encoding="UTF-8"?>
<svg width="119mm" height="69.5mm" version="1.1" viewBox="0 0 448 263" xmlns="http://www.w3.org/2000/svg" xmlns:cc="http://creativecommons.org/ns#" xmlns:dc="http://purl.org/dc/elements/1.1/" xmlns:rdf="http://www.w3.org/1999/02/22-rdf-syntax-ns#">
<title>Wit Studio logo</title>
<desc>A Japanese animation studio founded in 2012, part of IG Port</desc>
 <metadata>
  <rdf:RDF>
   <cc:Work rdf:about="">
    <dc:format>image/svg+xml</dc:format>
    <dc:type rdf:resource="http://purl.org/dc/dcmitype/StillImage"/>
    <dc:title/>
   </cc:Work>
  </rdf:RDF>
 </metadata>
 <path d="m0 14.9 49.5-14.9 22.5 133 67.2-78 29.2 69.6 64.4-95 34.5 20.7-103 139-47.2-62.1-74.9 79zm286 48.8 30.7-1.44-7.81 134-34.8 7.56zm97.3 17.1-34.3-7.31 7.31-28.8 92.3 15.6-8.18 26.9-32.9-4.32-20.6 97.1-30.1 0.245z" style="fill:#28893a"/>
 <g transform="matrix(1.03 0 0 .966 -382 -181)" style="font-feature-settings:normal;font-variant-caps:normal;font-variant-ligatures:normal;font-variant-numeric:normal;text-orientation:upright">
  <path d="m407 444 8.7-0.846q0.785 4.38 3.17 6.43 2.42 2.05 6.49 2.05 4.32 0 6.49-1.81 2.2-1.84 2.2-4.29 0-1.57-0.936-2.66-0.906-1.12-3.2-1.93-1.57-0.544-7.16-1.93-7.19-1.78-10.1-4.38-4.08-3.65-4.08-8.91 0-3.38 1.9-6.31 1.93-2.96 5.53-4.5 3.62-1.54 8.73-1.54 8.33 0 12.5 3.65 4.23 3.65 4.44 9.75l-8.94 0.393q-0.574-3.41-2.48-4.89-1.87-1.51-5.65-1.51-3.9 0-6.1 1.6-1.42 1.03-1.42 2.75 0 1.57 1.33 2.69 1.69 1.42 8.21 2.96t9.63 3.2q3.14 1.63 4.89 4.5 1.78 2.84 1.78 7.04 0 3.81-2.11 7.13-2.11 3.32-5.98 4.95-3.87 1.6-9.63 1.6-8.4 0-12.9-3.87-4.5-3.9-5.38-11.3z" style="stroke-width:.966"/>
  <path d="m482 459v-36.8h-13.1v-7.49h35.2v7.49h-13.1v36.8z" style="stroke-width:.966"/>
  <path d="m532 414h8.94v24q0 5.71 0.332 7.4 0.574 2.72 2.72 4.38 2.17 1.63 5.92 1.63 3.81 0 5.74-1.54 1.93-1.57 2.33-3.84t0.393-7.52v-24.5h8.94v23.3q0 7.97-0.725 11.3t-2.69 5.56q-1.93 2.26-5.19 3.62-3.26 1.33-8.52 1.33-6.34 0-9.63-1.45-3.26-1.48-5.16-3.8-1.9-2.36-2.51-4.92-0.876-3.8-0.876-11.2z" style="stroke-width:.966"/>
  <path d="m600 414h16.3q5.53 0 8.43 0.846 3.9 1.15 6.67 4.08 2.78 2.93 4.23 7.19 1.45 4.23 1.45 10.4 0 5.47-1.36 9.42-1.66 4.83-4.74 7.82-2.33 2.26-6.28 3.53-2.96 0.936-7.91 0.936h-16.8zm8.94 7.49v29.3h6.67q3.74 0 5.41-0.423 2.17-0.544 3.59-1.84 1.45-1.3 2.36-4.26 0.906-2.99 0.906-8.12 0-5.13-0.906-7.88-0.906-2.75-2.54-4.29-1.63-1.54-4.14-2.08-1.87-0.423-7.34-0.423z" style="stroke-width:.966"/>
  <path d="m668 459v-44.6h8.94v44.6z" style="stroke-width:.97"/>
  <path d="m707 437q0-6.79 2-11.4 1.49-3.39 4.05-6.09 2.59-2.7 5.66-4 4.08-1.76 9.41-1.76 9.65 0 15.4 6.09 5.81 6.09 5.81 16.9 0 10.8-5.75 16.9-5.75 6.06-15.4 6.06-9.74 0-15.5-6.03-5.75-6.06-5.75-16.7zm9.09-0.303q0 7.55 3.43 11.5 3.43 3.88 8.7 3.88 5.27 0 8.64-3.85 3.4-3.88 3.4-11.6 0-7.64-3.31-11.4-3.28-3.76-8.73-3.76-5.45 0-8.79 3.82-3.34 3.79-3.34 11.5z" style="stroke-width:.962"/>
 </g>
</svg>
